<svg width="758" height="427" viewBox="0 0 758 427" fill="none" xmlns="http://www.w3.org/2000/svg">
<rect width="758" height="426.322" fill="#171E31"/>
<path fill-rule="evenodd" clip-rule="evenodd" d="M378.673 193.213C388.907 193.213 398.722 189.148 405.958 181.911C413.195 174.675 417.26 164.86 417.26 154.626C417.26 144.392 413.195 134.577 405.958 127.34C398.722 120.104 388.907 116.038 378.673 116.038C368.439 116.038 358.624 120.104 351.387 127.34C344.151 134.577 340.085 144.392 340.085 154.626C340.085 164.86 344.151 174.675 351.387 181.911C358.624 189.148 368.439 193.213 378.673 193.213ZM288.635 308.976C288.635 297.152 290.964 285.444 295.489 274.52C300.014 263.596 306.646 253.671 315.007 245.31C323.367 236.949 333.293 230.317 344.217 225.792C355.141 221.267 366.849 218.938 378.673 218.938C390.497 218.938 402.205 221.267 413.129 225.792C424.052 230.317 433.978 236.949 442.339 245.31C450.7 253.671 457.332 263.596 461.857 274.52C466.381 285.444 468.71 297.152 468.71 308.976H288.635Z" fill="#A8A8A8"/>
</svg>
