<svg width="501" height="750" viewBox="0 0 501 750" fill="none" xmlns="http://www.w3.org/2000/svg">
<rect width="500.25" height="750" fill="#171E31"/>
<path fill-rule="evenodd" clip-rule="evenodd" d="M250.172 355.964C260.406 355.964 270.221 351.898 277.458 344.661C284.694 337.425 288.76 327.61 288.76 317.376C288.76 307.142 284.694 297.327 277.458 290.091C270.221 282.854 260.406 278.789 250.172 278.789C239.938 278.789 230.123 282.854 222.887 290.091C215.65 297.327 211.585 307.142 211.585 317.376C211.585 327.61 215.65 337.425 222.887 344.661C230.123 351.898 239.938 355.964 250.172 355.964ZM160.135 471.726C160.135 459.902 162.464 448.194 166.988 437.27C171.513 426.346 178.145 416.421 186.506 408.06C194.867 399.699 204.793 393.067 215.716 388.542C226.64 384.017 238.348 381.689 250.172 381.689C261.996 381.689 273.704 384.017 284.628 388.542C295.552 393.067 305.478 399.699 313.838 408.06C322.199 416.421 328.831 426.346 333.356 437.27C337.881 448.194 340.21 459.902 340.21 471.726H160.135Z" fill="#A8A8A8"/>
</svg>
